<?xml version="1.0" encoding="UTF-8" standalone="no"?>
<svg
        version="1.0"
        width="200"
        height="100"
        viewBox="0 0 177.06 84.675652"
        color-interpolation-filters="sRGB"
        id="svg65"
        xmlns="http://www.w3.org/2000/svg">
    <g
            fill="#1686cb"
            class="icon-text-wrapper icon-svg-group iconsvg"
            transform="translate(77.987273,78.632598)"
            id="g61">
        <path
                d="m -62.287273,-5.176948 v 3.46 h -10.88 v -3.46 z m 1.53,-7.76 v 3.44 h -13.79 v 15.54 h -3.44 v -17.25 q 0,-0.35 0.13,-0.67 0.13,-0.32 0.37,-0.56 0.23,-0.24 0.54,-0.37 0.32,-0.13 0.69,-0.13 v 0 z m 16.19,9.41 v 4.83 q 0,0.72 -0.25,1.54 -0.25,0.83 -0.82,1.54 -0.56,0.71 -1.46,1.18 -0.91,0.48 -2.21,0.48 v 0 h -6.21 q -0.71,0 -1.54,-0.25 -0.83,-0.25 -1.53,-0.82 -0.71,-0.56 -1.19,-1.46 -0.47,-0.91 -0.47,-2.21 v 0 q 0,-0.71000004 0.25,-1.55000004 0.25,-0.82999996 0.81,-1.53999996 0.56,-0.71 1.47,-1.18 0.91,-0.48 2.2,-0.48 v 0 h 6.21 v 3.27999996 h -6.21 q -0.7,0 -1.08,0.43 -0.39,0.43 -0.39,1.07000004 v 0 q 0,0.67 0.45,1.05 0.44,0.38 1.05,0.38 v 0 h 6.18 q 0.7,0 1.09,-0.43 0.38,-0.42 0.38,-1.06 v 0 -4.8 q 0,-0.67 -0.42,-1.07 -0.41,-0.4 -1.05,-0.4 v 0 h -7.56 v -3.27 h 7.56 q 0.72,0 1.54,0.25 0.83,0.25 1.54,0.82 0.71,0.56 1.18,1.47 0.48,0.9 0.48,2.2 z m 18.58,-4.74 v 12.58 q 0,0.37 -0.13,0.68 -0.13,0.32 -0.36,0.55 -0.23,0.24 -0.55,0.37 -0.31,0.13 -0.66,0.13 v 0 h -7.79 q -0.63,0 -1.35,-0.15 -0.72,-0.14 -1.43,-0.47 -0.7,-0.32 -1.35,-0.82 -0.66,-0.49 -1.15,-1.2 -0.49,-0.71 -0.79,-1.64 -0.29,-0.92000004 -0.29,-2.09000004 v 0 -7.93999996 h 3.44 v 7.93999996 q 0,0.68 0.23,1.21 0.23,0.54000004 0.63,0.92000004 0.4,0.39 0.93,0.59 0.54,0.21 1.16,0.21 v 0 h 6.02 v -10.87 z m 14.84,0 h 4.7400001 l -6.1800001,6.75 6.9600001,7.56 h -4.7400001 l -4.58,-4.99 -4.58,4.99 h -4.75 l 6.95,-7.58 -6.15,-6.73 h 4.71 l 3.8,4.14 z m 20.0200001,4.82 v 9.49 h -3.45 v -9.49 q 0,-0.68 -0.35,-1.03 -0.36,-0.35 -1.06,-0.35 v 0 h -4.48000002 v 10.87 H -3.9072729 v -12.6 q 0,-0.36 0.13,-0.67 0.14,-0.31 0.38,-0.54 0.23,-0.23 0.55,-0.37 0.32,-0.13 0.68,-0.13 v 0 h 6.2 q 0.72,0 1.54,0.25 0.82,0.25 1.56,0.81 v 0 -1.06 h 4.6599999 q 0.49,0 1.03,0.11 0.55,0.12 1.08,0.35 0.54,0.24 1.03,0.62 0.49,0.38 0.86,0.91 0.37,0.54 0.59,1.24 0.23,0.7 0.23,1.59 v 0 9.49 h -3.44 v -9.49 q 0,-0.68 -0.34,-1.03 -0.34,-0.35 -1.04,-0.35 v 0 H 8.6927271 q 0.18,0.64 0.18,1.38 z m 26.4699999,0 v 4.66 q 0,0.89 -0.23,1.59 -0.22,0.71 -0.59,1.25 -0.37,0.53 -0.86,0.91 -0.49,0.38 -1.03,0.62 -0.54,0.23 -1.08,0.35 -0.55,0.11 -1.04,0.11 v 0 h -6.21 q -0.72,0 -1.56,-0.25 -0.85,-0.25 -1.57,-0.83 -0.72,-0.57 -1.21,-1.49 -0.48,-0.92 -0.48,-2.26 v 0 -4.66 q 0,-1.32 0.48,-2.24 0.49,-0.92 1.21,-1.5 0.72,-0.58 1.57,-0.83 0.84,-0.25 1.56,-0.25 v 0 h 6.21 q 1.32,0 2.25,0.48 0.92,0.47 1.49,1.2 0.57,0.72 0.83,1.56 0.26,0.85 0.26,1.58 z m -3.44,4.66 v -4.63 q 0,-0.72 -0.36,-1.06 -0.36,-0.35 -1.03,-0.35 v 0 h -6.18 q -0.69,0 -1.05,0.35 -0.36,0.35 -0.36,1.03 v 0 4.66 q 0,0.67 0.36,1.03 0.36,0.36 1.05,0.36 v 0 h 6.18 q 0.7,0 1.04,-0.36 0.35,-0.36 0.35,-1.03 z m 22.35,-6.39 v 3.46 h -10.86 v -3.46 z m 1.55,7.78 v 3.44 h -12.41 q -0.72,0 -1.57,-0.25 -0.84,-0.25 -1.57,-0.83 -0.72,-0.57 -1.2,-1.49 -0.48,-0.92 -0.48,-2.26 v 0 -12.42 q 0,-0.35 0.13,-0.67 0.13,-0.32 0.36,-0.56 0.24,-0.24 0.55,-0.37 0.32,-0.13 0.69,-0.13 v 0 h 15.5 v 3.44 h -13.79 v 10.71 q 0,0.67 0.36,1.03 0.35,0.36 1.04,0.36 v 0 z m 21.5,-2.15000004 v 0 q 0,1.02000004 -0.26,1.84000004 -0.26,0.81 -0.68,1.43 -0.43,0.63 -1,1.06 -0.57,0.44 -1.17,0.72 -0.61,0.28 -1.24,0.41 -0.63,0.13 -1.19,0.13 v 0 h -13.27 v -3.44 h 13.27 q 1,0 1.55,-0.58 0.55,-0.59 0.55,-1.57000004 v 0 q 0,-0.47 -0.15,-0.87 -0.15,-0.4 -0.42,-0.68999996 -0.27,-0.29 -0.66,-0.45 -0.39,-0.16 -0.87,-0.16 v 0 h -7.91 q -0.84,0 -1.8,-0.29 -0.97,-0.3 -1.8,-0.96 -0.82,-0.67 -1.37,-1.74 -0.55,-1.07 -0.55,-2.62 v 0 q 0,-1.55 0.55,-2.61 0.55,-1.07 1.37,-1.74 0.83,-0.67 1.8,-0.96 0.96,-0.3 1.8,-0.3 v 0 h 11.71 v 3.44 h -11.71 q -0.98,0 -1.53,0.6 -0.55,0.59 -0.55,1.57 v 0 q 0,0.99 0.55,1.57 0.55,0.58 1.53,0.58 v 0 h 7.91 0.03 q 0.56,0.01 1.18,0.15 0.62,0.14 1.24,0.43 0.61,0.29 1.17,0.73 0.55,0.45 0.98,1.07 0.43,0.62 0.69,1.43 0.25,0.80999996 0.25,1.81999996 z m 21.77,-7.00999996 v 1.56 q 0,1.18 -0.29,2.11 -0.29,0.92 -0.79,1.63 -0.49,0.70999996 -1.14,1.20999996 -0.65,0.5 -1.36,0.82 -0.71,0.32000004 -1.43,0.47000004 -0.72,0.14 -1.36,0.14 v 0 h -7.78 v -3.44 h 7.78 q 0.67,-0.05 1.2,-0.27 0.54,-0.22 0.92,-0.59 0.39,-0.37 0.6,-0.89 0.21,-0.53 0.21,-1.19 v 0 -1.56 q -0.07,-0.65 -0.28,-1.19 -0.21,-0.54 -0.57,-0.93 -0.37,-0.38 -0.89,-0.6 -0.51,-0.22 -1.19,-0.22 v 0 h -7.75 q -0.69,0 -1.05,0.36 -0.36,0.36 -0.36,1.03 v 0 14.15 h -3.44 v -14.15 q 0,-1.32 0.49,-2.25 0.48,-0.93 1.2,-1.5 0.72,-0.56 1.57,-0.82 0.85,-0.26 1.56,-0.26 v 0 h 7.78 q 1.17,0 2.09,0.3 0.93,0.29 1.64,0.79 0.71,0.5 1.2,1.15 0.5,0.64 0.82,1.35 0.33,0.71 0.47,1.43 0.15,0.72 0.15,1.36 z"
                id="path51"
                style="fill:#8be9fd;fill-opacity:1;stroke:none"/>
        <g
                id="g365"
                style="overflow:visible;fill:#1686cb;fill-opacity:0"
                transform="matrix(0.65217391,0,0,0.65217391,-22.065974,-82.545642)">
            <line
                    stroke="#000000"
                    stroke-width="2"
                    stroke-miterlimit="10"
                    x1="6"
                    y1="50"
                    x2="20"
                    y2="50"
                    id="line4"
                    style="fill:#ffb86c;fill-opacity:1;stroke:#ffb86c;stroke-opacity:1"/>
            <line
                    stroke="#000000"
                    stroke-width="2"
                    stroke-miterlimit="10"
                    x1="6"
                    y1="35"
                    x2="20"
                    y2="35"
                    id="line6"
                    style="fill:#ffb86c;fill-opacity:1;stroke:#ffb86c;stroke-opacity:1"/>
            <line
                    stroke="#000000"
                    stroke-width="2"
                    stroke-miterlimit="10"
                    x1="6"
                    y1="65"
                    x2="20"
                    y2="65"
                    id="line8"
                    style="fill:#ffb86c;fill-opacity:1;stroke:#ffb86c;stroke-opacity:1"/>
            <line
                    stroke="#000000"
                    stroke-width="2"
                    stroke-miterlimit="10"
                    x1="80"
                    y1="50"
                    x2="94"
                    y2="50"
                    id="line10"
                    style="fill:#ffb86c;fill-opacity:1;stroke:#ffb86c;stroke-opacity:1"/>
            <line
                    stroke="#000000"
                    stroke-width="2"
                    stroke-miterlimit="10"
                    x1="80"
                    y1="35"
                    x2="94"
                    y2="35"
                    id="line12"
                    style="fill:#ffb86c;fill-opacity:1;stroke:#ffb86c;stroke-opacity:1"/>
            <line
                    stroke="#000000"
                    stroke-width="2"
                    stroke-miterlimit="10"
                    x1="80"
                    y1="65"
                    x2="94"
                    y2="65"
                    id="line14"
                    style="fill:#ffb86c;fill-opacity:1;stroke:#ffb86c;stroke-opacity:1"/>
            <line
                    stroke="#000000"
                    stroke-width="2"
                    stroke-miterlimit="10"
                    x1="50"
                    y1="6"
                    x2="50"
                    y2="20"
                    id="line16"
                    style="fill:#ffb86c;fill-opacity:1;stroke:#ffb86c;stroke-opacity:1"/>
            <line
                    stroke="#000000"
                    stroke-width="2"
                    stroke-miterlimit="10"
                    x1="65"
                    y1="6"
                    x2="65"
                    y2="20"
                    id="line18"
                    style="fill:#ffb86c;fill-opacity:1;stroke:#ffb86c;stroke-opacity:1"/>
            <line
                    stroke="#000000"
                    stroke-width="2"
                    stroke-miterlimit="10"
                    x1="35"
                    y1="6"
                    x2="35"
                    y2="20"
                    id="line20"
                    style="fill:#ffb86c;fill-opacity:1;stroke:#ffb86c;stroke-opacity:1"/>
            <line
                    stroke="#000000"
                    stroke-width="2"
                    stroke-miterlimit="10"
                    x1="50"
                    y1="80"
                    x2="50"
                    y2="94"
                    id="line22"
                    style="fill:#ffb86c;fill-opacity:1;stroke:#ffb86c;stroke-opacity:1"/>
            <line
                    stroke="#000000"
                    stroke-width="2"
                    stroke-miterlimit="10"
                    x1="65"
                    y1="80"
                    x2="65"
                    y2="94"
                    id="line24"
                    style="fill:#ffb86c;fill-opacity:1;stroke:#ffb86c;stroke-opacity:1"/>
            <line
                    stroke="#000000"
                    stroke-width="2"
                    stroke-miterlimit="10"
                    x1="35"
                    y1="80"
                    x2="35"
                    y2="94"
                    id="line26"
                    style="fill:#ffb86c;fill-opacity:1;stroke:#ffb86c;stroke-opacity:1"/>
            <path
                    stroke="#000000"
                    stroke-width="2"
                    stroke-miterlimit="10"
                    d="m 70,64 c 0,3.313 -2.687,6 -6,6 H 36 c -3.313,0 -6,-2.687 -6,-6 V 36 c 0,-3.313 2.687,-6 6,-6 h 28 c 3.313,0 6,2.687 6,6 z"
                    id="path28"
                    style="fill:#ffb86c;fill-opacity:1;stroke:#ffb86c;stroke-opacity:1"/>
            <path
                    stroke="#000000"
                    stroke-width="2"
                    stroke-miterlimit="10"
                    d="m 80,74 c 0,3.313 -2.687,6 -6,6 H 26 c -3.313,0 -6,-2.687 -6,-6 V 26 c 0,-3.313 2.687,-6 6,-6 h 48 c 3.313,0 6,2.687 6,6 z"
                    id="path30"
                    style="fill:#ffb86c;fill-opacity:1;stroke:#ffb86c;stroke-opacity:1"/>
        </g>
    </g>
</svg>
